<mxfile host="app.diagrams.net" modified="2024-01-17T11:42:29.962Z" agent="Mozilla/5.0 (Macintosh; Intel Mac OS X 10_15_7) AppleWebKit/537.36 (KHTML, like Gecko) Chrome/120.0.0.0 Safari/537.36" version="22.1.17" etag="u_33XngAI9-CKeM43tnZ" type="github">
  <diagram name="Page-1" id="W62dweai--tXB5-Jv5k6">
    <mxGraphModel>
      <root>
        <mxCell id="0" />
        <mxCell id="1" parent="0" />
      </root>
    </mxGraphModel>
  </diagram>
</mxfile>
